<svg xmlns="http://www.w3.org/2000/svg" viewBox="0 0 1600 900" role="img">
  <defs>
    <linearGradient id="bg" x1="0" y1="0" x2="1" y2="1">
      <stop offset="0" stop-color="#07111f"/>
      <stop offset="1" stop-color="#121326"/>
    </linearGradient>
    <radialGradient id="glow" cx="64%" cy="45%" r="58%">
      <stop offset="0" stop-color="#8b5cf6" stop-opacity=".24"/>
      <stop offset="1" stop-color="#8b5cf6" stop-opacity="0"/>
    </radialGradient>
    <pattern id="dots" width="36" height="36" patternUnits="userSpaceOnUse">
      <circle cx="2" cy="2" r="1.2" fill="#a78bfa" fill-opacity=".18"/>
    </pattern>
  </defs>
  <rect width="1600" height="900" fill="url(#bg)"/>
  <rect width="1600" height="900" fill="url(#dots)"/>
  <rect width="1600" height="900" fill="url(#glow)"/>
  <g fill="none" stroke-linecap="round" stroke-linejoin="round">
    <rect x="172" y="224" width="470" height="328" rx="28" fill="#0b1728" stroke="#7dd3fc" stroke-opacity=".5" stroke-width="5"/>
    <circle cx="222" cy="272" r="10" fill="#38bdf8" fill-opacity=".65"/>
    <circle cx="255" cy="272" r="10" fill="#a78bfa" fill-opacity=".65"/>
    <circle cx="288" cy="272" r="10" fill="#34d399" fill-opacity=".65"/>
    <path d="M238 350h118M238 410h248M238 470h192" stroke="#bfdbfe" stroke-opacity=".34" stroke-width="12"/>
    <path d="M365 350l48 42-48 42" stroke="#22d3ee" stroke-opacity=".8" stroke-width="8"/>
    <path d="M642 388c148-78 276-78 384 0" stroke="#22d3ee" stroke-opacity=".5" stroke-width="6"/>
    <path d="M642 466c150 74 278 70 384-12" stroke="#8b5cf6" stroke-opacity=".56" stroke-width="6"/>
    <circle cx="1060" cy="270" r="52" fill="#111827" stroke="#a78bfa" stroke-width="6"/>
    <circle cx="1242" cy="405" r="58" fill="#111827" stroke="#22d3ee" stroke-width="6"/>
    <circle cx="1048" cy="592" r="52" fill="#111827" stroke="#34d399" stroke-width="6"/>
    <circle cx="1352" cy="604" r="42" fill="#111827" stroke="#60a5fa" stroke-width="5"/>
    <path d="M1103 294l91 72M1194 446l-105 109M1286 445l48 116M1099 591h211" stroke="#93c5fd" stroke-opacity=".34" stroke-width="7"/>
    <circle cx="1242" cy="405" r="14" fill="#22d3ee"/>
    <circle cx="1060" cy="270" r="12" fill="#a78bfa"/>
    <circle cx="1048" cy="592" r="12" fill="#34d399"/>
  </g>
</svg>
