<svg xmlns="http://www.w3.org/2000/svg" viewBox="0 0 1600 900" role="img">
  <defs>
    <linearGradient id="bg" x1="0" y1="0" x2="1" y2="1">
      <stop offset="0" stop-color="#071420"/>
      <stop offset="1" stop-color="#111827"/>
    </linearGradient>
    <radialGradient id="glow" cx="58%" cy="48%" r="58%">
      <stop offset="0" stop-color="#34d399" stop-opacity=".2"/>
      <stop offset="1" stop-color="#34d399" stop-opacity="0"/>
    </radialGradient>
    <pattern id="dots" width="38" height="38" patternUnits="userSpaceOnUse">
      <circle cx="2" cy="2" r="1.1" fill="#86efac" fill-opacity=".16"/>
    </pattern>
  </defs>
  <rect width="1600" height="900" fill="url(#bg)"/>
  <rect width="1600" height="900" fill="url(#dots)"/>
  <rect width="1600" height="900" fill="url(#glow)"/>
  <g fill="none" stroke-linecap="round" stroke-linejoin="round">
    <g stroke="#38bdf8" stroke-opacity=".55" stroke-width="5">
      <rect x="232" y="300" width="200" height="124" rx="18" fill="#0b1728"/>
      <rect x="232" y="486" width="200" height="124" rx="18" fill="#0b1728"/>
      <rect x="1168" y="300" width="200" height="124" rx="18" fill="#0b1728"/>
      <rect x="1168" y="486" width="200" height="124" rx="18" fill="#0b1728"/>
    </g>
    <circle cx="800" cy="454" r="112" fill="#0b1728" stroke="#34d399" stroke-width="7"/>
    <path d="M762 454a40 40 0 1 1 64 32l80 80" stroke="#86efac" stroke-width="14"/>
    <path d="M860 520l34-34M896 556l34-34" stroke="#86efac" stroke-width="10"/>
    <path d="M432 362c112-68 228-78 348-30M432 548c116 72 232 82 348 30M1168 362c-112-68-228-78-348-30M1168 548c-116 72-232 82-348 30" stroke="#22d3ee" stroke-opacity=".35" stroke-width="7"/>
    <path d="M626 260a214 214 0 0 1 348 0" stroke="#34d399" stroke-opacity=".38" stroke-width="8"/>
    <path d="M974 648a214 214 0 0 1-348 0" stroke="#34d399" stroke-opacity=".38" stroke-width="8"/>
    <path d="M949 236l52 44-64 24M651 672l-52-44 64-24" stroke="#86efac" stroke-opacity=".65" stroke-width="8"/>
  </g>
</svg>
