<svg xmlns="http://www.w3.org/2000/svg" viewBox="0 0 1600 900" role="img">
  <defs>
    <linearGradient id="bg" x1="0" y1="0" x2="1" y2="1">
      <stop offset="0" stop-color="#08111f"/>
      <stop offset="1" stop-color="#111827"/>
    </linearGradient>
    <radialGradient id="glow" cx="72%" cy="38%" r="55%">
      <stop offset="0" stop-color="#22d3ee" stop-opacity=".25"/>
      <stop offset="1" stop-color="#22d3ee" stop-opacity="0"/>
    </radialGradient>
    <pattern id="grid" width="42" height="42" patternUnits="userSpaceOnUse">
      <path d="M42 0H0v42" fill="none" stroke="#93c5fd" stroke-opacity=".08"/>
      <circle cx="1" cy="1" r="1.2" fill="#67e8f9" fill-opacity=".22"/>
    </pattern>
  </defs>
  <rect width="1600" height="900" fill="url(#bg)"/>
  <rect width="1600" height="900" fill="url(#grid)"/>
  <rect width="1600" height="900" fill="url(#glow)"/>
  <g fill="none" stroke-linecap="round" stroke-linejoin="round">
    <path d="M210 455h310l92 74 92-74h310v226H210z" fill="#0f1b2e" stroke="#38bdf8" stroke-opacity=".55" stroke-width="5"/>
    <path d="M220 466l392 220 392-220" stroke="#67e8f9" stroke-opacity=".32" stroke-width="4"/>
    <path d="M1040 565c122-142 258-189 398-126" stroke="#22d3ee" stroke-opacity=".62" stroke-width="8"/>
    <path d="M1040 565c116 86 239 100 368 42" stroke="#34d399" stroke-opacity=".58" stroke-width="8"/>
    <circle cx="1040" cy="565" r="21" fill="#22d3ee" fill-opacity=".24" stroke="#67e8f9" stroke-width="5"/>
    <circle cx="1438" cy="439" r="18" fill="#22d3ee" fill-opacity=".22" stroke="#67e8f9" stroke-width="5"/>
    <circle cx="1408" cy="607" r="18" fill="#10b981" fill-opacity=".22" stroke="#6ee7b7" stroke-width="5"/>
    <rect x="1185" y="376" width="126" height="112" rx="20" fill="#071525" stroke="#34d399" stroke-width="5"/>
    <path d="M1218 376v-35c0-35 25-60 62-60s62 25 62 60v35" stroke="#86efac" stroke-width="5"/>
    <circle cx="1248" cy="430" r="12" fill="#34d399"/>
    <path d="M612 286h190l55 48h195v95H612z" fill="#0b1728" stroke="#60a5fa" stroke-opacity=".45" stroke-width="4"/>
    <path d="M657 380h327" stroke="#93c5fd" stroke-opacity=".28" stroke-width="5"/>
  </g>
</svg>
