<svg xmlns="http://www.w3.org/2000/svg" viewBox="0 0 1600 900" role="img">
  <defs>
    <linearGradient id="bg" x1="0" y1="0" x2="1" y2="1">
      <stop offset="0" stop-color="#07111f"/>
      <stop offset="1" stop-color="#111827"/>
    </linearGradient>
    <radialGradient id="glow" cx="50%" cy="48%" r="58%">
      <stop offset="0" stop-color="#f59e0b" stop-opacity=".17"/>
      <stop offset="1" stop-color="#f59e0b" stop-opacity="0"/>
    </radialGradient>
    <pattern id="grid" width="42" height="42" patternUnits="userSpaceOnUse">
      <path d="M42 0H0v42" fill="none" stroke="#93c5fd" stroke-opacity=".07"/>
    </pattern>
  </defs>
  <rect width="1600" height="900" fill="url(#bg)"/>
  <rect width="1600" height="900" fill="url(#grid)"/>
  <rect width="1600" height="900" fill="url(#glow)"/>
  <g fill="none" stroke-linecap="round" stroke-linejoin="round">
    <circle cx="350" cy="226" r="44" fill="#0b1728" stroke="#fbbf24" stroke-width="5"/>
    <circle cx="244" cy="404" r="44" fill="#0b1728" stroke="#38bdf8" stroke-width="5"/>
    <circle cx="456" cy="404" r="44" fill="#0b1728" stroke="#38bdf8" stroke-width="5"/>
    <circle cx="244" cy="594" r="44" fill="#0b1728" stroke="#34d399" stroke-width="5"/>
    <circle cx="456" cy="594" r="44" fill="#0b1728" stroke="#34d399" stroke-width="5"/>
    <path d="M350 270v62M350 332H244v28M350 332h106v28M244 448v102M456 448v102" stroke="#93c5fd" stroke-opacity=".38" stroke-width="7"/>
    <rect x="702" y="278" width="310" height="176" rx="26" fill="#0b1728" stroke="#a78bfa" stroke-width="6"/>
    <path d="M760 352h194M760 402h122" stroke="#c4b5fd" stroke-opacity=".3" stroke-width="10"/>
    <path d="M500 404c84-42 144-42 202 0" stroke="#fbbf24" stroke-opacity=".52" stroke-width="7"/>
    <path d="M1012 366c142 28 234 100 274 216" stroke="#22d3ee" stroke-opacity=".46" stroke-width="7"/>
    <circle cx="1286" cy="582" r="82" fill="#0b1728" stroke="#22d3ee" stroke-width="6"/>
    <path d="M1236 582h100M1286 532v100" stroke="#67e8f9" stroke-opacity=".42" stroke-width="9"/>
    <path d="M1188 698l-96 88" stroke="#34d399" stroke-opacity=".56" stroke-width="8"/>
    <circle cx="1084" cy="794" r="18" fill="#34d399" fill-opacity=".25" stroke="#86efac" stroke-width="5"/>
  </g>
</svg>
