<svg xmlns="http://www.w3.org/2000/svg" viewBox="0 0 1600 900" role="img">
  <defs>
    <linearGradient id="bg" x1="0" y1="0" x2="1" y2="1">
      <stop offset="0" stop-color="#06121f"/>
      <stop offset="1" stop-color="#102033"/>
    </linearGradient>
    <radialGradient id="glow" cx="50%" cy="45%" r="55%">
      <stop offset="0" stop-color="#60a5fa" stop-opacity=".22"/>
      <stop offset="1" stop-color="#60a5fa" stop-opacity="0"/>
    </radialGradient>
    <pattern id="dots" width="34" height="34" patternUnits="userSpaceOnUse">
      <circle cx="2" cy="2" r="1" fill="#93c5fd" fill-opacity=".18"/>
    </pattern>
  </defs>
  <rect width="1600" height="900" fill="url(#bg)"/>
  <rect width="1600" height="900" fill="url(#dots)"/>
  <rect width="1600" height="900" fill="url(#glow)"/>
  <g fill="none" stroke-linecap="round" stroke-linejoin="round">
    <path d="M800 210l170 98v196l-170 98-170-98V308z" fill="#0b1728" stroke="#60a5fa" stroke-width="8"/>
    <path d="M800 318v196M630 308l170 98M970 308l-170 98" stroke="#93c5fd" stroke-opacity=".45" stroke-width="6"/>
    <circle cx="800" cy="416" r="54" stroke="#34d399" stroke-width="7"/>
    <path d="M776 416l18 18 36-36" stroke="#86efac" stroke-width="8"/>
    <rect x="300" y="300" width="150" height="90" rx="16" fill="#0b1728" stroke="#a78bfa" stroke-width="5"/>
    <rect x="300" y="430" width="150" height="90" rx="16" fill="#0b1728" stroke="#22d3ee" stroke-width="5"/>
    <rect x="1150" y="300" width="150" height="90" rx="16" fill="#0b1728" stroke="#f59e0b" stroke-width="5"/>
    <rect x="1150" y="430" width="150" height="90" rx="16" fill="#0b1728" stroke="#34d399" stroke-width="5"/>
    <path d="M450 345h120M450 475h120M1030 345h120M1030 475h120" stroke="#93c5fd" stroke-opacity=".25" stroke-width="8"/>
  </g>
</svg>