<svg xmlns="http://www.w3.org/2000/svg" viewBox="0 0 1600 900" role="img">
  <defs>
    <linearGradient id="bg" x1="0" y1="0" x2="1" y2="1">
      <stop offset="0" stop-color="#04101d"/>
      <stop offset=".55" stop-color="#071827"/>
      <stop offset="1" stop-color="#0f1f33"/>
    </linearGradient>
    <radialGradient id="cyanGlow" cx="55%" cy="42%" r="58%">
      <stop offset="0" stop-color="#22d3ee" stop-opacity=".2"/>
      <stop offset=".55" stop-color="#38bdf8" stop-opacity=".08"/>
      <stop offset="1" stop-color="#38bdf8" stop-opacity="0"/>
    </radialGradient>
    <radialGradient id="amberGlow" cx="78%" cy="32%" r="32%">
      <stop offset="0" stop-color="#f59e0b" stop-opacity=".15"/>
      <stop offset="1" stop-color="#f59e0b" stop-opacity="0"/>
    </radialGradient>
    <pattern id="dots" width="32" height="32" patternUnits="userSpaceOnUse">
      <circle cx="2" cy="2" r="1" fill="#93c5fd" fill-opacity=".16"/>
    </pattern>
    <pattern id="grid" width="96" height="96" patternUnits="userSpaceOnUse">
      <path d="M96 0H0v96" fill="none" stroke="#93c5fd" stroke-opacity=".055" stroke-width="2"/>
    </pattern>
    <filter id="softShadow" x="-20%" y="-20%" width="140%" height="140%">
      <feDropShadow dx="0" dy="22" stdDeviation="22" flood-color="#000814" flood-opacity=".42"/>
    </filter>
  </defs>
  <rect width="1600" height="900" fill="url(#bg)"/>
  <rect width="1600" height="900" fill="url(#grid)"/>
  <rect width="1600" height="900" fill="url(#dots)"/>
  <rect width="1600" height="900" fill="url(#cyanGlow)"/>
  <rect width="1600" height="900" fill="url(#amberGlow)"/>
  <g fill="none" stroke-linecap="round" stroke-linejoin="round">
    <path d="M278 530c146-96 278-142 398-138 132 4 230 70 354 64 96-4 188-50 296-132" stroke="#38bdf8" stroke-opacity=".14" stroke-width="16"/>
    <path d="M302 586c142-86 262-116 386-96 116 20 218 78 342 74 118-4 214-62 306-128" stroke="#34d399" stroke-opacity=".11" stroke-width="12"/>
    <g filter="url(#softShadow)">
      <rect x="250" y="190" width="430" height="365" rx="34" fill="#071625" stroke="#38bdf8" stroke-opacity=".65" stroke-width="6"/>
      <path d="M250 286h430" stroke="#38bdf8" stroke-opacity=".38" stroke-width="6"/>
      <path d="M348 158v70M582 158v70" stroke="#93c5fd" stroke-opacity=".55" stroke-width="14"/>
      <rect x="318" y="346" width="74" height="62" rx="13" fill="#0d2237" stroke="#60a5fa" stroke-opacity=".58" stroke-width="4"/>
      <rect x="430" y="346" width="74" height="62" rx="13" fill="#0d2237" stroke="#22d3ee" stroke-opacity=".74" stroke-width="4"/>
      <rect x="542" y="346" width="74" height="62" rx="13" fill="#0d2237" stroke="#60a5fa" stroke-opacity=".58" stroke-width="4"/>
      <rect x="318" y="444" width="74" height="62" rx="13" fill="#0d2237" stroke="#34d399" stroke-opacity=".76" stroke-width="4"/>
      <rect x="430" y="444" width="74" height="62" rx="13" fill="#0d2237" stroke="#60a5fa" stroke-opacity=".58" stroke-width="4"/>
      <rect x="542" y="444" width="74" height="62" rx="13" fill="#0d2237" stroke="#f59e0b" stroke-opacity=".66" stroke-width="4"/>
      <path d="M337 476l18 18 38-42" stroke="#34d399" stroke-opacity=".88" stroke-width="7"/>
      <path d="M568 486h22M579 464v2" stroke="#fbbf24" stroke-opacity=".88" stroke-width="7"/>
    </g>
    <g filter="url(#softShadow)">
      <path d="M860 260l158-66 158 66v126c0 118-70 200-158 246-88-46-158-128-158-246z" fill="#071625" stroke="#22d3ee" stroke-opacity=".74" stroke-width="7"/>
      <path d="M954 402l44 44 90-112" stroke="#34d399" stroke-opacity=".88" stroke-width="12"/>
      <path d="M1018 194v438" stroke="#60a5fa" stroke-opacity=".14" stroke-width="5"/>
      <path d="M860 320h316" stroke="#60a5fa" stroke-opacity=".14" stroke-width="5"/>
    </g>
    <g stroke-width="5">
      <rect x="1188" y="218" width="124" height="92" rx="18" fill="#08192a" stroke="#60a5fa" stroke-opacity=".62"/>
      <rect x="1234" y="398" width="124" height="92" rx="18" fill="#08192a" stroke="#22d3ee" stroke-opacity=".66"/>
      <rect x="1112" y="592" width="124" height="92" rx="18" fill="#08192a" stroke="#34d399" stroke-opacity=".62"/>
      <rect x="1360" y="596" width="124" height="92" rx="18" fill="#08192a" stroke="#60a5fa" stroke-opacity=".58"/>
      <path d="M1176 382h58M1296 310l-42 88M1298 490l-88 102M1340 490l72 106" stroke="#93c5fd" stroke-opacity=".28" stroke-width="6"/>
      <circle cx="1176" cy="382" r="13" fill="#22d3ee" fill-opacity=".18" stroke="#67e8f9"/>
      <circle cx="1250" cy="398" r="13" fill="#22d3ee" fill-opacity=".18" stroke="#67e8f9"/>
      <circle cx="1210" cy="592" r="13" fill="#34d399" fill-opacity=".16" stroke="#86efac"/>
      <circle cx="1412" cy="596" r="13" fill="#60a5fa" fill-opacity=".16" stroke="#93c5fd"/>
      <path d="M1220 264h60M1266 444h60M1144 638h60M1392 642h60" stroke="#93c5fd" stroke-opacity=".22" stroke-width="8"/>
    </g>
    <g>
      <circle cx="736" cy="634" r="72" fill="#071625" stroke="#38bdf8" stroke-opacity=".58" stroke-width="6"/>
      <path d="M736 590v46l36 24" stroke="#67e8f9" stroke-opacity=".82" stroke-width="8"/>
      <path d="M664 634a72 72 0 0 1 126-48" stroke="#34d399" stroke-opacity=".56" stroke-width="8"/>
      <path d="M804 658a72 72 0 0 1-98 42" stroke="#f59e0b" stroke-opacity=".62" stroke-width="8"/>
    </g>
  </g>
</svg>
