<svg xmlns="http://www.w3.org/2000/svg" viewBox="0 0 1600 900" role="img">
  <defs>
    <linearGradient id="bg" x1="0" y1="0" x2="1" y2="1">
      <stop offset="0" stop-color="#061525"/>
      <stop offset="1" stop-color="#0f172a"/>
    </linearGradient>
    <radialGradient id="glow" cx="62%" cy="42%" r="58%">
      <stop offset="0" stop-color="#22d3ee" stop-opacity=".22"/>
      <stop offset="1" stop-color="#22d3ee" stop-opacity="0"/>
    </radialGradient>
    <pattern id="grid" width="44" height="44" patternUnits="userSpaceOnUse">
      <path d="M44 0H0v44" fill="none" stroke="#93c5fd" stroke-opacity=".07"/>
    </pattern>
  </defs>
  <rect width="1600" height="900" fill="url(#bg)"/>
  <rect width="1600" height="900" fill="url(#grid)"/>
  <rect width="1600" height="900" fill="url(#glow)"/>
  <g fill="none" stroke-linecap="round" stroke-linejoin="round">
    <rect x="236" y="280" width="360" height="226" rx="28" fill="#0b1728" stroke="#38bdf8" stroke-width="6"/>
    <path d="M320 582h192M384 506v76" stroke="#38bdf8" stroke-width="7"/>
    <path d="M658 392h196" stroke="#22d3ee" stroke-opacity=".52" stroke-width="8"/>
    <path d="M820 348l64 44-64 44" stroke="#22d3ee" stroke-opacity=".72" stroke-width="8"/>
    <circle cx="982" cy="392" r="70" stroke="#60a5fa" stroke-width="9"/>
    <circle cx="1150" cy="392" r="104" stroke="#22d3ee" stroke-opacity=".72" stroke-width="9"/>
    <circle cx="1360" cy="392" r="136" stroke="#34d399" stroke-opacity=".62" stroke-width="9"/>
    <path d="M982 392h378" stroke="#93c5fd" stroke-opacity=".28" stroke-width="5"/>
    <path d="M450 602c172 110 444 142 738 74" stroke="#a78bfa" stroke-opacity=".42" stroke-width="7"/>
    <circle cx="450" cy="602" r="17" fill="#22d3ee" fill-opacity=".26" stroke="#67e8f9" stroke-width="5"/>
    <circle cx="1188" cy="676" r="17" fill="#a78bfa" fill-opacity=".26" stroke="#c4b5fd" stroke-width="5"/>
    <path d="M342 356h148M342 418h96" stroke="#93c5fd" stroke-opacity=".26" stroke-width="9"/>
  </g>
</svg>
